<svg width="157" height="40" viewBox="0 0 157 40" fill="none" xmlns="http://www.w3.org/2000/svg">
<path d="M68.2172 16.2347V3.27197H63.9293V1.03906H75.3077V3.27197H70.9964V16.2347H68.2172Z" fill="white"/>
<path d="M78.8721 4.64062C79.5961 4.64062 80.2407 4.74129 80.8152 4.93804C81.3851 5.13936 81.8802 5.40933 82.2959 5.75708C82.7116 6.10482 83.0573 6.51663 83.3329 6.99707C83.6131 7.47751 83.8187 8.0037 83.9541 8.58023C84.0896 9.15675 84.1596 9.75159 84.1596 10.3739C84.1596 11.0373 84.0942 11.6688 83.9681 12.2636C83.842 12.863 83.6365 13.4167 83.3562 13.9337C83.076 14.4507 82.7257 14.8946 82.2959 15.2606C81.8662 15.6313 81.3571 15.915 80.7732 16.1254C80.1847 16.3313 79.5074 16.4366 78.7414 16.4366C77.7605 16.4366 76.9337 16.2718 76.2564 15.9378C75.5791 15.6038 75.0279 15.16 74.6076 14.6017C74.1872 14.0435 73.8789 13.3984 73.6921 12.6754C73.5052 11.9525 73.4118 11.2066 73.4118 10.4425C73.4118 9.86598 73.4772 9.2986 73.6033 8.74037C73.7294 8.18215 73.9443 7.65138 74.2339 7.15721C74.5282 6.66305 74.8878 6.22836 75.3176 5.85316C75.7473 5.47796 76.2564 5.18055 76.8403 4.97007C77.4288 4.75502 78.1061 4.64977 78.8721 4.64977V4.64062ZM78.76 6.71796C78.4144 6.71796 78.1014 6.77286 77.8212 6.88267C77.5409 6.99249 77.298 7.15721 77.0878 7.36769C76.8776 7.58274 76.6955 7.83441 76.546 8.13182C76.3965 8.42924 76.2844 8.76784 76.219 9.14761C76.149 9.53196 76.1163 9.94377 76.1163 10.3876C76.1163 11.0053 76.1723 11.5635 76.2844 12.0577C76.3965 12.5519 76.5694 12.9683 76.8029 13.3068C77.0365 13.6454 77.3214 13.9063 77.6624 14.0939C78.0033 14.2769 78.3957 14.3684 78.8488 14.3684C79.1944 14.3684 79.5074 14.3089 79.7876 14.1899C80.0679 14.071 80.3108 13.9017 80.521 13.682C80.7312 13.4624 80.904 13.1925 81.0395 12.8767C81.1749 12.561 81.2777 12.1904 81.3431 11.7694C81.4131 11.3485 81.4458 10.8863 81.4458 10.3876C81.4458 9.79735 81.3944 9.2803 81.287 8.82731C81.1796 8.3789 81.0208 7.99455 80.8012 7.67883C80.5817 7.36311 80.3014 7.12061 79.9558 6.96047C79.6101 6.80032 79.2084 6.71796 78.76 6.71796Z" fill="white"/>
<path d="M90.7951 4.64062C91.519 4.64062 92.1636 4.74129 92.7382 4.93804C93.308 5.13936 93.8031 5.40933 94.2189 5.75708C94.6346 6.10482 94.9802 6.51663 95.2558 6.99707C95.5361 7.47751 95.7416 8.0037 95.877 8.58023C96.0125 9.15675 96.0826 9.75159 96.0826 10.3739C96.0826 11.0373 96.0172 11.6688 95.891 12.2636C95.7649 12.863 95.5594 13.4167 95.2792 13.9337C94.9989 14.4507 94.6486 14.8946 94.2189 15.2606C93.7891 15.6313 93.28 15.915 92.6961 16.1254C92.1076 16.3313 91.4303 16.4366 90.6643 16.4366C89.6834 16.4366 88.8566 16.2718 88.1793 15.9378C87.502 15.6038 86.9509 15.16 86.5305 14.6017C86.1101 14.0435 85.8018 13.3984 85.615 12.6754C85.4281 11.9525 85.3347 11.2066 85.3347 10.4425C85.3347 9.86598 85.4001 9.2986 85.5262 8.74037C85.6523 8.18215 85.8672 7.65138 86.1568 7.15721C86.4511 6.66305 86.8107 6.22836 87.2405 5.85316C87.6702 5.47796 88.1793 5.18055 88.7632 4.97007C89.3517 4.75502 90.029 4.64977 90.7951 4.64977V4.64062ZM90.6829 6.71796C90.3373 6.71796 90.0243 6.77286 89.7441 6.88267C89.4638 6.99249 89.2209 7.15721 89.0107 7.36769C88.8006 7.58274 88.6184 7.83441 88.4689 8.13182C88.3194 8.42924 88.2073 8.76784 88.142 9.14761C88.0719 9.53196 88.0392 9.94377 88.0392 10.3876C88.0392 11.0053 88.0952 11.5635 88.2073 12.0577C88.3194 12.5519 88.4923 12.9683 88.7258 13.3068C88.9594 13.6454 89.2443 13.9063 89.5853 14.0939C89.9262 14.2769 90.3186 14.3684 90.7717 14.3684C91.1173 14.3684 91.4303 14.3089 91.7106 14.1899C91.9908 14.071 92.2337 13.9017 92.4439 13.682C92.6541 13.4624 92.8269 13.1925 92.9624 12.8767C93.0978 12.561 93.2006 12.1904 93.266 11.7694C93.336 11.3485 93.3687 10.8863 93.3687 10.3876C93.3687 9.79735 93.3174 9.2803 93.2099 8.82731C93.1025 8.3789 92.9437 7.99455 92.7241 7.67883C92.5046 7.36311 92.2244 7.12061 91.8787 6.96047C91.5331 6.80032 91.1314 6.71796 90.6829 6.71796Z" fill="white"/>
<path d="M100.598 16.235H97.9355V0.15625H100.598V16.235Z" fill="white"/>
<path d="M106.92 14.5057C107.341 14.5057 107.686 14.4507 107.948 14.3409C108.209 14.2311 108.415 14.0755 108.56 13.8742C108.704 13.6729 108.774 13.435 108.774 13.1558C108.774 12.9499 108.728 12.7669 108.63 12.6022C108.532 12.4421 108.387 12.2956 108.191 12.1721C107.994 12.0485 107.733 11.925 107.411 11.806C107.088 11.6871 106.701 11.5635 106.248 11.4308C105.495 11.2387 104.874 11.0236 104.384 10.7903C103.893 10.5523 103.515 10.2915 103.244 10.0032C102.973 9.71499 102.782 9.40384 102.67 9.0744C102.557 8.74496 102.501 8.3789 102.501 7.98082C102.501 7.6285 102.571 7.24872 102.716 6.85064C102.861 6.45256 103.095 6.08652 103.417 5.75708C103.739 5.42306 104.174 5.15767 104.715 4.95176C105.257 4.74586 105.935 4.64062 106.747 4.64062C107.513 4.64062 108.163 4.72756 108.69 4.906C109.218 5.08445 109.653 5.32696 109.998 5.63811C110.344 5.94925 110.61 6.31072 110.788 6.72253C110.97 7.13433 111.082 7.57816 111.129 8.04945H108.508C108.48 7.871 108.429 7.69714 108.363 7.51869C108.298 7.34024 108.191 7.18008 108.046 7.03366C107.901 6.88724 107.719 6.76828 107.495 6.68135C107.27 6.59441 106.981 6.54865 106.635 6.54865C106.29 6.54865 106.028 6.59898 105.813 6.70422C105.594 6.80946 105.425 6.94216 105.304 7.11146C105.183 7.28075 105.122 7.50038 105.122 7.76577C105.122 7.97167 105.187 8.15927 105.313 8.32857C105.439 8.49787 105.664 8.65344 105.981 8.79528C106.299 8.93712 106.757 9.08813 107.359 9.24828C108.125 9.44045 108.77 9.6555 109.288 9.90259C109.807 10.1497 110.227 10.4105 110.54 10.6987C110.853 10.987 111.077 11.3164 111.208 11.6825C111.334 12.0531 111.4 12.4649 111.4 12.9225C111.4 13.4853 111.287 13.984 111.059 14.4279C110.83 14.8717 110.517 15.2378 110.11 15.5352C109.704 15.8326 109.228 16.0568 108.676 16.2078C108.125 16.3634 107.523 16.4411 106.859 16.4411C106.196 16.4411 105.566 16.3679 105.01 16.2215C104.454 16.0751 103.973 15.8509 103.566 15.5489C103.16 15.2469 102.833 14.8671 102.585 14.4096C102.338 13.952 102.188 13.4212 102.146 12.8173H104.72C104.781 13.0826 104.865 13.3206 104.968 13.5356C105.075 13.7507 105.229 13.9291 105.43 14.0755C105.636 14.222 105.86 14.3318 106.107 14.4096C106.355 14.4828 106.631 14.5194 106.929 14.5194L106.92 14.5057Z" fill="white"/>
<path d="M121.097 16.2343H118.453V6.90003H116.781V4.86387H118.453V3.69251C118.453 3.14801 118.519 2.64928 118.645 2.20087C118.771 1.75246 118.972 1.35896 119.243 1.02951C119.514 0.70007 119.864 0.443829 120.294 0.26538C120.723 0.0869306 121.251 0 121.887 0C122.111 0 122.34 0.0137157 122.564 0.045745C122.788 0.0731987 122.97 0.114389 123.106 0.155569V2.25578C122.998 2.21002 122.872 2.18714 122.723 2.17798C122.573 2.16883 122.419 2.16884 122.27 2.16884C121.83 2.16884 121.527 2.3061 121.354 2.57606C121.181 2.8506 121.092 3.23038 121.092 3.7154V4.86387H123.078V6.90003H121.092V16.2343H121.097Z" fill="white"/>
<path d="M128.901 4.64062C129.625 4.64062 130.269 4.74129 130.844 4.93804C131.414 5.13936 131.909 5.40933 132.324 5.75708C132.74 6.10482 133.086 6.51663 133.361 6.99707C133.642 7.47751 133.847 8.0037 133.983 8.58023C134.118 9.15675 134.188 9.75159 134.188 10.3739C134.188 11.0373 134.123 11.6688 133.997 12.2636C133.87 12.863 133.665 13.4167 133.385 13.9337C133.104 14.4507 132.754 14.8946 132.324 15.2606C131.895 15.6313 131.386 15.915 130.802 16.1254C130.213 16.3313 129.536 16.4366 128.77 16.4366C127.789 16.4366 126.962 16.2718 126.285 15.9378C125.608 15.6038 125.056 15.16 124.636 14.6017C124.216 14.0435 123.907 13.3984 123.721 12.6754C123.534 11.9525 123.44 11.2066 123.44 10.4425C123.44 9.86598 123.506 9.2986 123.632 8.74037C123.758 8.18215 123.973 7.65138 124.262 7.15721C124.557 6.66305 124.916 6.22836 125.346 5.85316C125.776 5.47796 126.285 5.18055 126.869 4.97007C127.457 4.75502 128.135 4.64977 128.901 4.64977V4.64062ZM128.788 6.71796C128.443 6.71796 128.13 6.77286 127.85 6.88267C127.569 6.99249 127.326 7.15721 127.116 7.36769C126.906 7.58274 126.724 7.83441 126.574 8.13182C126.425 8.42924 126.313 8.76784 126.247 9.14761C126.177 9.53196 126.145 9.94377 126.145 10.3876C126.145 11.0053 126.201 11.5635 126.313 12.0577C126.425 12.5519 126.598 12.9683 126.831 13.3068C127.065 13.6454 127.35 13.9063 127.691 14.0939C128.032 14.2769 128.424 14.3684 128.877 14.3684C129.223 14.3684 129.536 14.3089 129.816 14.1899C130.096 14.071 130.339 13.9017 130.549 13.682C130.76 13.4624 130.932 13.1925 131.068 12.8767C131.203 12.561 131.306 12.1904 131.372 11.7694C131.442 11.3485 131.474 10.8863 131.474 10.3876C131.474 9.79735 131.423 9.2803 131.315 8.82731C131.208 8.3789 131.049 7.99455 130.83 7.67883C130.61 7.36311 130.33 7.12061 129.984 6.96047C129.639 6.80032 129.237 6.71796 128.788 6.71796Z" fill="white"/>
<path d="M136.043 16.2358V7.0571C136.043 6.57209 136.043 6.13741 136.034 5.76221C136.025 5.38701 136.015 5.08958 136.001 4.86538H138.598C138.626 5.02552 138.645 5.2177 138.645 5.42818C138.645 5.63866 138.645 5.87659 138.654 6.1374C138.664 6.39363 138.664 6.67276 138.664 6.9656C138.766 6.68649 138.925 6.41194 139.126 6.14656C139.327 5.88117 139.579 5.63866 139.873 5.41446C140.168 5.19025 140.513 5.01181 140.91 4.87454C141.307 4.73269 141.756 4.66406 142.256 4.66406V7.34079C141.443 7.32706 140.775 7.44604 140.247 7.69312C139.719 7.94478 139.332 8.32912 139.084 8.84159C138.836 9.35864 138.71 10.0496 138.71 10.9189V16.2266H136.048L136.043 16.2358Z" fill="white"/>
<path d="M68.0285 35.4066V20.2109H70.761V26.3606H76.992V20.2109H79.7246V35.4066H76.992V28.5935H70.761V35.4066H68.0285Z" fill="white"/>
<path d="M91.1528 24.0312V32.0843C91.1528 32.6014 91.1528 33.0772 91.1622 33.5119C91.1715 33.9466 91.1762 34.3172 91.1855 34.6284C91.1949 34.9395 91.1949 35.1958 91.1949 35.4017H88.6212C88.6072 35.2827 88.5932 35.1454 88.5745 34.9944C88.5605 34.8389 88.5464 34.6696 88.5418 34.4865C88.5324 34.3035 88.5231 34.1068 88.5091 33.9009C88.2989 34.2852 88.0326 34.6055 87.7057 34.8617C87.3834 35.118 87.019 35.3101 86.6127 35.4245C86.2063 35.5435 85.7532 35.603 85.2581 35.603C84.7163 35.603 84.2258 35.5206 83.7914 35.3605C83.3523 35.2003 82.9787 34.9578 82.6611 34.6421C82.3434 34.3264 82.1005 33.9146 81.9277 33.4158C81.7549 32.9125 81.6661 32.3268 81.6661 31.6451V24.0358H84.3099V31.2013C84.3099 31.5124 84.3426 31.8006 84.4127 32.0752C84.4827 32.3497 84.5808 32.5831 84.7163 32.7844C84.8517 32.9857 85.0386 33.1413 85.2815 33.2603C85.5243 33.3792 85.8233 33.4387 86.1829 33.4387C86.664 33.4387 87.0751 33.3335 87.4114 33.1184C87.7524 32.9034 88.014 32.5785 88.2008 32.1347C88.3876 31.6908 88.481 31.1097 88.481 30.3868V24.0404H91.1435L91.1528 24.0312Z" fill="white"/>
<path d="M93.2802 35.4012V27.5494C93.2802 26.8265 93.2802 26.2408 93.2709 25.7924C93.2615 25.344 93.2615 24.9825 93.2615 24.708C93.2615 24.4334 93.2522 24.2092 93.2382 24.0354H95.8118C95.8399 24.1681 95.8586 24.3191 95.8679 24.4883C95.8772 24.6576 95.8866 24.8315 95.9006 25.01C95.9146 25.1884 95.924 25.344 95.924 25.4767C96.1201 25.1518 96.363 24.8681 96.6573 24.6256C96.9516 24.3831 97.3065 24.1864 97.7176 24.0399C98.1333 23.8935 98.6097 23.8203 99.1516 23.8203C99.6934 23.8203 100.132 23.8981 100.515 24.0537C100.899 24.2092 101.221 24.4243 101.473 24.6943C101.73 24.9688 101.926 25.2891 102.062 25.6551C102.244 25.3303 102.491 25.0328 102.809 24.7583C103.127 24.4838 103.514 24.2596 103.972 24.0857C104.43 23.9072 104.948 23.8203 105.518 23.8203C105.999 23.8203 106.457 23.8889 106.882 24.0216C107.307 24.1543 107.695 24.374 108.036 24.6851C108.377 24.9962 108.648 25.3989 108.848 25.9022C109.054 26.4055 109.152 27.0232 109.152 27.7599V35.4149H106.532V28.2037C106.532 27.9109 106.504 27.6272 106.443 27.3618C106.382 27.0965 106.284 26.8631 106.149 26.6663C106.013 26.4696 105.826 26.3049 105.597 26.1813C105.364 26.0578 105.065 25.9937 104.705 25.9937C104.21 25.9937 103.799 26.1127 103.477 26.346C103.155 26.584 102.916 26.918 102.767 27.3527C102.617 27.7874 102.543 28.2998 102.543 28.8901V35.4149H99.9456V28.0939C99.9456 27.8148 99.9129 27.5449 99.8429 27.2886C99.7728 27.0324 99.6701 26.8036 99.5253 26.616C99.3805 26.4238 99.1936 26.2728 98.9601 26.163C98.7265 26.0532 98.4509 25.9983 98.138 25.9983C97.7783 25.9983 97.456 26.0624 97.1804 26.1859C96.9002 26.3094 96.6713 26.4971 96.4938 26.7396C96.3163 26.9821 96.1715 27.2978 96.0781 27.6776C95.98 28.0619 95.9333 28.5195 95.9333 29.0502V35.4195H93.2895L93.2802 35.4012Z" fill="white"/>
<path d="M120.397 27.4822V32.5931C120.397 32.7853 120.397 33.0049 120.406 33.2566C120.415 33.5082 120.425 33.7599 120.439 34.0207C120.453 34.2769 120.471 34.524 120.495 34.762C120.518 34.9999 120.542 35.2104 120.574 35.4025H118.201C118.173 35.2836 118.145 35.1372 118.122 34.9587C118.099 34.7803 118.08 34.6018 118.066 34.4188C118.052 34.2358 118.038 34.0619 118.019 33.8972C117.87 34.222 117.641 34.5149 117.342 34.7803C117.038 35.0456 116.674 35.247 116.235 35.3888C115.796 35.5307 115.287 35.5993 114.698 35.5993C113.736 35.5993 112.975 35.4254 112.419 35.0777C111.863 34.7299 111.461 34.2907 111.223 33.7599C110.98 33.2291 110.863 32.6846 110.863 32.1218C110.863 31.7375 110.919 31.3668 111.031 31.0054C111.144 30.6439 111.33 30.3053 111.597 29.9896C111.858 29.6739 112.199 29.3993 112.615 29.1706C113.031 28.9418 113.535 28.7633 114.138 28.6306C114.74 28.4979 115.455 28.4293 116.282 28.4293H117.772V27.5233C117.772 27.2717 117.744 27.0383 117.692 26.8278C117.641 26.6128 117.547 26.4206 117.421 26.2422C117.295 26.0637 117.108 25.931 116.87 25.8349C116.627 25.7388 116.305 25.6931 115.899 25.6931C115.539 25.6931 115.231 25.7343 114.983 25.8166C114.736 25.899 114.539 26.018 114.395 26.169C114.25 26.3245 114.142 26.503 114.068 26.6997C113.993 26.901 113.941 27.1252 113.909 27.3723H111.312C111.358 26.9148 111.461 26.4709 111.629 26.0454C111.793 25.6199 112.054 25.2401 112.409 24.9061C112.764 24.5721 113.232 24.3067 113.811 24.1099C114.39 23.9086 115.109 23.8125 115.969 23.8125C116.632 23.8125 117.235 23.8766 117.776 24.0001C118.318 24.1236 118.785 24.3296 119.178 24.6087C119.57 24.8878 119.869 25.2676 120.079 25.748C120.289 26.2284 120.397 26.805 120.397 27.4822ZM117.87 30.406V30.1635H116.31C115.735 30.1635 115.273 30.2138 114.908 30.319C114.549 30.4243 114.264 30.5615 114.063 30.74C113.862 30.9184 113.722 31.1106 113.657 31.3165C113.587 31.5224 113.554 31.7375 113.554 31.9571C113.554 32.2545 113.619 32.5199 113.745 32.7624C113.871 33.0049 114.072 33.2062 114.343 33.3618C114.614 33.5174 114.95 33.5952 115.361 33.5952C115.843 33.5952 116.249 33.5128 116.581 33.3527C116.912 33.1925 117.169 32.9729 117.347 32.6984C117.529 32.4238 117.66 32.0944 117.744 31.7009C117.828 31.3119 117.87 30.8773 117.87 30.406Z" fill="white"/>
<path d="M122.517 35.4012V27.5723C122.517 26.7762 122.517 26.1539 122.508 25.7055C122.499 25.2571 122.499 24.9002 122.499 24.6439C122.499 24.3877 122.489 24.1818 122.475 24.0354H125.072C125.086 24.1086 125.1 24.2367 125.119 24.4243C125.133 24.6073 125.147 24.8086 125.152 25.0237C125.161 25.2388 125.161 25.4309 125.161 25.6094C125.297 25.3714 125.46 25.1518 125.647 24.9459C125.834 24.74 126.067 24.5478 126.347 24.3694C126.628 24.1909 126.941 24.0582 127.296 23.9622C127.651 23.8661 128.038 23.8203 128.459 23.8203C129.047 23.8203 129.57 23.9072 130.028 24.0857C130.486 24.2641 130.869 24.5295 131.182 24.8818C131.49 25.2342 131.728 25.6689 131.892 26.1859C132.055 26.7029 132.139 27.3069 132.139 27.9979V35.4058H129.477V28.46C129.477 27.9887 129.421 27.5677 129.309 27.1971C129.197 26.8265 129.001 26.5336 128.72 26.314C128.44 26.0944 128.048 25.98 127.534 25.98C126.992 25.98 126.548 26.099 126.203 26.3323C125.857 26.5703 125.6 26.9134 125.437 27.371C125.273 27.8285 125.189 28.4188 125.189 29.1418V35.4012H122.527H122.517Z" fill="white"/>
<path d="M134.255 21.9284V19.3203H136.917V21.9284H134.255ZM134.255 35.399V24.0286H136.917V35.399H134.255Z" fill="white"/>
<path d="M138.139 26.0729V24.0368H139.834V20.875H142.478V24.0368H144.622V26.0729H142.478V32.3552C142.478 32.6343 142.506 32.8585 142.567 33.0278C142.627 33.1971 142.739 33.3253 142.908 33.403C143.071 33.4854 143.323 33.5266 143.655 33.5266C143.79 33.5266 143.917 33.5266 144.029 33.5174C144.141 33.5083 144.272 33.4991 144.426 33.4854V35.3202C144.243 35.3797 144.047 35.4255 143.828 35.4621C143.608 35.4987 143.398 35.5216 143.197 35.5307C142.992 35.5399 142.819 35.5399 142.665 35.5399C142.151 35.5399 141.721 35.485 141.366 35.3751C141.011 35.2653 140.722 35.1006 140.497 34.8764C140.273 34.6522 140.105 34.3639 140.002 34.0025C139.895 33.641 139.843 33.2017 139.843 32.6847V26.0729H138.148H138.139Z" fill="white"/>
<path d="M145.983 24.0312H148.827C149.112 25.0333 149.379 25.953 149.631 26.7858C149.878 27.6185 150.103 28.3644 150.308 29.0187C150.514 29.673 150.682 30.2632 150.817 30.7894C150.953 31.3111 151.07 31.764 151.168 32.1392C151.266 32.5144 151.336 32.8347 151.382 33.1001H151.406C151.467 32.8347 151.555 32.4733 151.677 32.0157C151.798 31.5581 151.938 31.0365 152.092 30.4463C152.251 29.856 152.429 29.22 152.625 28.5337C152.821 27.8473 153.031 27.1198 153.256 26.3557C153.48 25.587 153.709 24.8137 153.933 24.0312H156.619L152.62 35.9096C152.396 36.6188 152.153 37.2136 151.896 37.7032C151.639 38.1882 151.382 38.5863 151.116 38.8883C150.855 39.1903 150.565 39.4236 150.257 39.5838C149.949 39.7439 149.622 39.8583 149.276 39.9132C148.93 39.9727 148.561 40.0002 148.169 40.0002C148.094 40.0002 147.987 40.0002 147.851 39.991C147.716 39.9819 147.576 39.9727 147.436 39.959C147.291 39.9453 147.169 39.9315 147.062 39.9132V37.7673C147.211 37.781 147.384 37.7947 147.58 37.7993C147.777 37.8084 147.949 37.8084 148.099 37.8084C148.37 37.8084 148.608 37.7627 148.809 37.6757C149.01 37.5888 149.187 37.4561 149.341 37.2868C149.491 37.1175 149.622 36.9116 149.738 36.6691C149.855 36.4266 149.958 36.1566 150.065 35.8638L145.978 24.0312H145.983Z" fill="white"/>
<path d="M55.7808 0.921875H39.7036C33.5353 0.921875 28.5353 5.8656 28.5353 11.9644V35.6966H39.7363V11.6571H55.7808V0.921875Z" fill="white"/>
<path d="M0 0.921875H16.0772C22.2455 0.921875 27.2455 5.8656 27.2455 11.9644V35.6966H16.0445V11.6571H0V0.921875Z" fill="white"/>
</svg>
