<svg width="48" height="48" viewBox="0 0 48 48" fill="none" xmlns="http://www.w3.org/2000/svg">
    <g clip-path="url(#clip0_1862_4384)">
        <path
            d="M47.76 24.0516C47.76 28.8751 46.3106 33.3551 43.8165 37.0822C39.6047 43.4163 32.4 47.5859 24.2259 47.5859C16.0518 47.5859 8.84234 43.4163 4.63528 37.0822C2.14116 33.3504 0.691742 28.8751 0.691742 24.0516C0.691742 19.228 2.14116 14.748 4.63528 11.021C8.84705 4.68687 16.0518 0.517456 24.2259 0.517456C32.4 0.517456 39.6094 4.68687 43.8165 11.021C46.3106 14.7527 47.76 19.2327 47.76 24.0516Z"
            stroke="currentColor" stroke-miterlimit="10" />
        <path
            d="M47.76 24.0516C47.76 28.8751 46.3106 33.3551 43.8165 37.0822C42.1318 37.788 40.2918 38.1833 38.353 38.1833C35.7788 38.1833 33.3647 37.4963 31.2847 36.2869C27.0588 33.8492 24.2212 29.2798 24.2212 24.0516C24.2212 18.8233 27.0588 14.2539 31.2847 11.8163C33.3647 10.6069 35.7788 9.9198 38.353 9.9198C40.2918 9.9198 42.1318 10.3104 43.8165 11.021C46.3106 14.7527 47.76 19.2327 47.76 24.0516Z"
            stroke="currentColor" stroke-miterlimit="10" />
        <path
            d="M24.2211 38.1833C32.0259 38.1833 38.3529 31.8563 38.3529 24.0516C38.3529 16.2468 32.0259 9.9198 24.2211 9.9198C16.4164 9.9198 10.0894 16.2468 10.0894 24.0516C10.0894 31.8563 16.4164 38.1833 24.2211 38.1833Z"
            stroke="currentColor" stroke-miterlimit="10" />
        <path
            d="M24.2211 24.0516C24.2211 29.2798 21.3835 33.8492 17.1576 36.2869C15.0776 37.4963 12.6635 38.1833 10.0894 38.1833C8.15055 38.1833 6.31055 37.7927 4.62586 37.0822C2.13174 33.3504 0.682343 28.8751 0.682343 24.0516C0.682343 19.228 2.13174 14.748 4.62586 11.021C6.31055 10.3151 8.15055 9.9198 10.0894 9.9198C12.6635 9.9198 15.0776 10.6069 17.1576 11.8163C21.3835 14.2539 24.2211 18.8233 24.2211 24.0516Z"
            stroke="currentColor" stroke-miterlimit="10" />
    </g>
    <defs>
        <clipPath id="clip0_1862_4384">
            <rect width="48" height="48" fill="none" />
        </clipPath>
    </defs>
</svg>