<svg width="48" height="48" viewBox="0 0 48 48" fill="none" xmlns="http://www.w3.org/2000/svg">
    <g clip-path="url(#clip0_1289_2645)">
        <path
            d="M47.6282 24.0518C47.6282 32.9365 42.7153 40.6729 35.4541 44.6918C32.0753 46.5647 28.1882 47.6282 24.0518 47.6282C19.9153 47.6282 16.0282 46.56 12.6494 44.6918C5.38352 40.6776 0.470581 32.9365 0.470581 24.0518C0.470581 11.0306 11.0212 0.470581 24.0518 0.470581C37.0823 0.470581 47.6329 11.0259 47.6329 24.0518H47.6282Z"
            stroke="currentColor" stroke-miterlimit="10" />
        <path
            d="M35.4541 15.2564V44.6917C32.0753 46.5646 28.1882 47.6282 24.0518 47.6282C19.9153 47.6282 16.0282 46.5599 12.6494 44.6917V15.2564C12.6494 13.407 14.1506 11.9058 16 11.9058H32.1035C33.9529 11.9058 35.4541 13.407 35.4541 15.2564Z"
            stroke="currentColor" stroke-miterlimit="10" />
        <path
            d="M24.047 29.0635C26.8149 29.0635 29.0588 26.8197 29.0588 24.0518C29.0588 21.2838 26.8149 19.04 24.047 19.04C21.2791 19.04 19.0353 21.2838 19.0353 24.0518C19.0353 26.8197 21.2791 29.0635 24.047 29.0635Z"
            stroke="currentColor" stroke-miterlimit="10" />
    </g>
    <defs>
        <clipPath id="clip0_1289_2645">
            <rect width="48" height="48" fill="white" />
        </clipPath>
    </defs>
</svg>